<svg width="1200" height="1200" viewBox="0 0 1200 1200" fill="none" xmlns="http://www.w3.org/2000/svg">
<path d="M600 0C931.38 0 1200 268.62 1200 600C1200 931.38 931.38 1200 600 1200C268.62 1200 0 931.38 0 600C0 268.62 268.62 0 600 0ZM954.286 330.553L967.183 335.781C974.04 338.595 980.439 342.42 986.164 347.129L907.226 377.613L799.097 485.742L1012.28 403.372V800.994C1012.28 815.373 1007.99 829.425 999.956 841.349C991.921 853.272 980.509 862.527 967.183 867.925L657.783 993.367C648.898 996.971 639.833 999.708 630.59 1001.58V654.25L568.693 716.146V1001.58C559.45 999.653 550.386 996.943 541.501 993.367L363.6 921.239L305.64 979.2C397.99 1050.99 513.377 1086.59 630.123 1079.31C746.869 1072.02 856.938 1022.36 939.65 939.65C1022.36 856.938 1072.02 746.869 1079.31 630.123C1086.59 513.377 1050.99 397.99 979.2 305.64L954.286 330.553ZM894.36 220.8C802.01 149.008 686.623 113.41 569.877 120.692C453.131 127.975 343.062 177.637 260.35 260.35C177.637 343.062 127.975 453.131 120.692 569.877C113.41 686.623 149.008 802.01 220.8 894.36L242.869 872.29L232.102 867.925C218.781 862.529 207.374 853.281 199.339 841.365C191.304 829.449 187.008 815.407 187 801.035V403.372L565.531 549.628L630.701 484.458L599.642 496.464L213.12 347.129C218.732 342.425 225.059 338.642 232.102 335.781L367.489 280.9L703.594 411.565L751.41 363.749L451.132 246.98L541.501 210.338C578.788 195.22 620.497 195.22 657.783 210.338L833.556 281.604L894.36 220.8Z" fill="black"/>
</svg>
