<svg width="1200" height="1200" viewBox="0 0 1200 1200" fill="none" xmlns="http://www.w3.org/2000/svg">
<path d="M600 0C931.38 0 1200 268.62 1200 600C1200 931.38 931.38 1200 600 1200C268.62 1200 0 931.38 0 600C0 268.62 268.62 0 600 0ZM665.001 970.524C644.001 973.524 622.501 975.024 600.001 975.024C577.501 975.024 556.001 973.524 535.001 970.524C510.623 1013.07 472.885 1042.66 429.452 1048.83C492.907 1072.98 561.278 1083.6 630.123 1079.31C678.7 1076.28 726.121 1065.91 770.896 1048.88C727.317 1042.81 689.444 1013.19 665.001 970.524ZM835.099 449.74C827.61 480.252 814.298 508.546 796.501 533.524C835.501 553.524 868.001 579.525 892.001 610.024C906.001 603.524 921.501 600.024 937.501 600.024C1000 600.025 1050 650.025 1050 712.524C1050 775.024 1000 825.024 937.501 825.024H934.501C936.501 837.024 937.501 850.025 937.501 862.524C937.501 899.729 928.842 934.414 913.896 963.583C922.743 955.945 931.335 947.966 939.65 939.65C1022.36 856.938 1072.02 746.869 1079.31 630.123C1086.59 513.377 1050.99 397.99 979.2 305.64L835.099 449.74ZM357.858 926.98C371.525 945.178 390.932 956.524 412.501 956.524C454.001 956.524 487.501 914.524 487.501 862.524C487.501 843.161 482.765 825.14 474.648 810.19L357.858 926.98ZM787.501 769.024C746.001 769.024 712.501 811.024 712.501 862.524C712.501 914.524 746.001 956.524 787.501 956.524C829.001 956.524 862.501 914.524 862.501 862.524C862.501 811.025 829.001 769.025 787.501 769.024ZM263.264 257.462C262.289 258.42 261.317 259.382 260.35 260.35C177.637 343.062 127.975 453.131 120.692 569.877C113.41 686.623 149.008 802.01 220.8 894.36L262.716 852.443C263.107 843.16 264.034 833.824 265.501 825.024H262.501C200.001 825.024 150.001 775.024 150.001 712.524C149.937 693.784 154.576 675.327 163.494 658.845C172.412 642.362 185.323 628.381 201.045 618.182C216.767 607.982 234.796 601.891 253.482 600.466C272.169 599.041 290.914 602.327 308.001 610.024C332.001 579.524 364.501 553.524 403.001 533.524C375.001 494.025 357.501 445.024 357.501 392.524V389.524C303.501 377.524 262.501 329.024 262.501 271.024C262.501 266.442 262.76 261.916 263.264 257.462ZM600.001 375.024C538.001 375.024 487.501 417.024 487.501 469.024C487.501 508.533 517.223 542.45 559.057 556.103L695.645 419.515C675.778 392.789 640.322 375.025 600.001 375.024ZM600.001 412.524C620.501 412.525 637.501 429.525 637.501 450.024C637.501 470.524 620.501 487.524 600.001 487.524C579.501 487.524 562.501 470.524 562.501 450.024C562.501 429.524 579.501 412.524 600.001 412.524ZM780.958 155.276C714.602 128.228 642.503 116.162 569.877 120.692C517.544 123.957 466.553 135.738 418.766 155.194C439.244 161.337 457.423 172.653 471.001 187.524C509.563 163.016 554.31 150 600.001 150C645.692 150 690.439 163.016 729.001 187.524C742.518 172.72 760.593 161.437 780.958 155.276Z" fill="black"/>
</svg>
