<svg width="1200" height="1200" viewBox="0 0 1200 1200" fill="none" xmlns="http://www.w3.org/2000/svg">
<path d="M600 0C931.38 0 1200 268.62 1200 600C1200 931.38 931.38 1200 600 1200C268.62 1200 0 931.38 0 600C0 268.62 268.62 0 600 0ZM398.307 893.282C403.117 904.893 405.522 916.105 405.522 926.515C405.522 950.938 396.703 971.358 379.466 988.975C370.357 998.284 360.24 1005.02 349.115 1009.31C432.977 1060.79 531.06 1085.49 630.123 1079.31C705.306 1074.62 777.72 1052.35 841.842 1015H841.267V893.282H812.805C817.214 903.692 819.219 914.903 819.219 926.515C819.219 950.938 810.8 971.358 793.562 988.975C776.325 1006.19 755.481 1015 731.429 1015C706.976 1015 686.531 1006.19 668.893 988.975C660.513 980.89 653.879 971.178 649.397 960.437C644.916 949.695 642.684 938.151 642.837 926.515C642.837 914.903 644.84 903.692 649.25 893.282H609.164C613.574 904.093 615.979 915.304 615.979 926.515C615.979 950.938 607.159 971.358 589.922 988.975C572.685 1006.59 551.84 1015 527.387 1015C502.934 1015 482.489 1006.19 465.252 988.975C448.015 971.758 439.597 950.938 439.597 926.515C439.597 914.903 441.601 903.692 446.011 893.282H398.307ZM797.357 487.481C797.767 489.181 797.973 490.977 797.973 492.896V505.309C797.973 510.914 795.968 516.119 792.36 520.123C788.753 524.127 784.343 526.529 778.73 526.529V662.26H841.267C852.09 662.26 861.71 666.264 869.728 674.271C877.745 682.279 881.754 691.889 881.754 702.699V820.012L958.333 919.877C1029.83 839.787 1072.59 737.795 1079.31 630.123C1086.59 513.377 1050.99 397.99 979.2 305.64L797.357 487.481ZM894.36 220.8C802.01 149.008 686.623 113.41 569.877 120.692C453.131 127.975 343.062 177.637 260.35 260.35C177.637 343.062 127.975 453.131 120.692 569.877C113.41 686.623 149.008 802.01 220.8 894.36L225.163 889.996C219.67 887.646 214.78 884.107 210.701 879.27C204.287 871.662 201.08 862.853 201.08 852.844V818.41H200.278V596.196H183.041C179.032 596.196 175.826 594.995 173.02 592.192C171.684 590.899 170.637 589.339 169.946 587.614C169.256 585.89 168.937 584.039 169.011 582.183V569.37C169.011 565.366 170.214 562.163 173.02 559.36C175.826 556.558 179.033 555.357 183.041 555.357H486.898C490.907 555.357 494.115 556.558 496.921 559.36C499.727 562.163 500.93 565.366 500.93 569.37V582.183C500.93 586.186 499.727 589.39 496.921 592.192C494.115 594.995 490.907 596.196 486.898 596.196H469.261L469.26 645.899L706.338 408.821C702.295 406.802 698.615 404.265 695.351 401.208C688.937 394.802 684.527 387.195 682.924 378.387C674.906 376.785 667.289 370.779 660.475 360.77C653.66 350.76 650.052 341.551 650.052 333.543C637.625 322.332 631.211 308.319 631.211 291.903C631.211 277.489 637.224 264.677 649.651 254.667C662.078 244.257 676.51 239.052 692.945 239.052H697.354C701.363 223.437 709.781 210.224 722.208 200.215C734.635 190.205 749.066 185 765.502 185C781.938 185 797.171 190.205 810.399 200.615C823.628 211.025 832.046 224.238 835.253 240.253C845.117 242.94 853.866 247.409 861.335 253.824L894.36 220.8ZM339.379 617.817H282.056C273.637 617.817 266.421 620.62 260.408 627.026C254.395 633.032 251.589 639.838 251.589 647.846V739.935H251.188C251.188 748.343 253.995 755.55 260.008 761.556C266.021 767.561 273.236 770.364 281.654 770.364H339.379C341.426 770.364 343.401 770.196 345.3 769.859L368.777 746.382C369.215 744.317 369.444 742.169 369.444 739.935V647.846C369.559 643.887 368.832 639.949 367.312 636.292C365.792 632.634 363.513 629.34 360.625 626.626C357.908 623.742 354.609 621.466 350.947 619.947C347.285 618.429 343.342 617.703 339.379 617.817ZM637.859 646.979C640.084 651.657 641.446 656.766 642.035 662.26H694.949V589.891L637.859 646.979Z" fill="black"/>
</svg>
